<svg xmlns="http://www.w3.org/2000/svg" xmlns:xlink="http://www.w3.org/1999/xlink" width="166" height="166" viewBox="0 0 166 166" fill="none"><rect  x="0" y="0" width="166" height="166" rx="22"    fill="url(#linear_fill_0_3_0)" ></rect><g ><g filter="url(#filter_0_5)"><path     fill="#000000"  d="M29.8711 120.098Q28.7578 119.98 28.1719 119.102Q27.5859 118.223 27.7031 117.168Q27.9961 115.352 28.8164 113.828Q29.6367 112.305 30.0176 111.543Q30.3984 110.781 30.8086 109.844L33.0352 104.688L57.1172 32.5586L83.0156 82.5977L108.152 32.5586L138.211 119.219L106.746 119.219L92.2148 74.4531L69.7148 121.328L46.043 79.1406L37.8398 104.746Q35.9062 109.023 35.0859 112.012Q34.2656 115 33.7383 116.641Q32.5664 120.332 29.8711 120.098Z"></path></g></g><defs><linearGradient id="linear_fill_0_3_0" x1="21.575020000000002" y1="22.58762" x2="145.50398" y2="143.41237999999998" gradientUnits="userSpaceOnUse"><stop offset="0" stop-color="#D0FD02"  /><stop offset="1" stop-color="#21DE00"  /></linearGradient><filter id="filter_0_5" x="19.5859375" y="32.55859375" width="126.625" height="115.76953125" filterUnits="userSpaceOnUse" color-interpolation-filters="sRGB"><feFlood flood-opacity="0" result="feFloodId_0_5"/><feColorMatrix in="SourceAlpha" type="matrix" values="0 0 0 0 0 0 0 0 0 0 0 0 0 0 0 0 0 0 127 0" result="hardAlpha_0_5"/><feOffset dx="0" dy="19"/><feGaussianBlur stdDeviation="4"/><feComposite in2="hardAlpha_0_5" operator="out"/><feColorMatrix type="matrix" values="0 0 0 0 0 0 0 0 0 0 0 0 0 0 0 0 0 0 0.25 0"/><feBlend mode="normal" in2="feFloodId_0_5" result="dropShadow_1_0_5"/><feBlend mode="normal" in="SourceGraphic" in2="dropShadow_1_0_5" result="shape_0_5"/></filter></defs></svg>